<?xml version="1.0" encoding="UTF-8" standalone="no"?>
<!-- Created with Inkscape (http://www.inkscape.org/) -->

<svg
   width="142.28186mm"
   height="50.852077mm"
   viewBox="0 0 142.28186 50.852077"
   version="1.1"
   id="svg5"
   xml:space="preserve"
   inkscape:export-filename="bitmap.svg"
   inkscape:export-xdpi="96"
   inkscape:export-ydpi="96"
   sodipodi:docname="path182.svg 10-02-22-349.svg"
   inkscape:version="1.2.1 (9c6d41e, 2022-07-14)"
   xmlns:inkscape="http://www.inkscape.org/namespaces/inkscape"
   xmlns:sodipodi="http://sodipodi.sourceforge.net/DTD/sodipodi-0.dtd"
   xmlns="http://www.w3.org/2000/svg"
   xmlns:svg="http://www.w3.org/2000/svg"><sodipodi:namedview
     id="namedview7"
     pagecolor="#ffffff"
     bordercolor="#cccccc"
     borderopacity="1"
     inkscape:showpageshadow="0"
     inkscape:pageopacity="1"
     inkscape:pagecheckerboard="0"
     inkscape:deskcolor="#d1d1d1"
     inkscape:document-units="mm"
     showgrid="false"
     inkscape:zoom="0.74479683"
     inkscape:cx="-88.61477"
     inkscape:cy="-22.153693"
     inkscape:window-width="1345"
     inkscape:window-height="707"
     inkscape:window-x="0"
     inkscape:window-y="38"
     inkscape:window-maximized="0"
     inkscape:current-layer="layer1" /><defs
     id="defs2" /><g
     inkscape:label="Layer 1"
     inkscape:groupmode="layer"
     id="layer1"
     transform="translate(-33.859069,-115.13646)"><path
       id="path182"
       style="fill:#f5f5f5;fill-opacity:1;stroke:none;stroke-width:0.999999;stroke-opacity:1"
       d="m 33.859069,69.628127 v 67.009453 c 8.01318,7.20481 12.271198,-9.6812 26.903013,20.27817 11.21592,22.96511 19.398073,-4.84309 33.127463,-12.86627 13.729385,-8.02318 11.636555,9.18292 34.704295,1.15983 23.06802,-8.02318 6.60682,23.51327 25.67745,13.82002 18.98116,-9.64777 0.27005,-23.50859 21.86964,-14.72682 V 69.628127 Z"
       inkscape:export-filename="path182.svg"
       inkscape:export-xdpi="96"
       inkscape:export-ydpi="96"
       sodipodi:nodetypes="ccssssccc" /><path
       style="color:#000000;fill:#000000;stroke-width:0.999999;-inkscape-stroke:none"
       d="m 33.859069,136.44438 v 0.49818 c 2.034251,1.82904 3.755897,1.96771 5.536858,1.86441 1.780964,-0.10329 3.506527,-0.59736 5.413624,-0.38976 1.907098,0.20761 4.013241,1.1024 6.575391,3.82387 2.562153,2.72147 5.566787,7.27045 9.220427,14.75146 2.813759,5.7613 5.452747,8.38665 8.1003,8.90098 2.647554,0.51432 5.203563,-1.10904 7.799958,-3.66551 5.192788,-5.11295 10.670446,-14.05305 17.472261,-18.02789 3.410524,-1.99304 5.802754,-2.40562 7.852522,-2.05392 2.04976,0.3517 3.77943,1.48412 5.82385,2.63548 4.08886,2.30274 9.42824,4.61623 20.99716,0.59249 5.73954,-1.99624 8.95366,-1.51979 10.89209,0.10649 1.93844,1.62628 2.64193,4.46926 3.21705,7.29962 0.57512,2.83035 1.00939,5.64235 2.57473,7.17539 0.78267,0.76651 1.85543,1.1917 3.31329,1.10852 1.45787,-0.0832 3.30532,-0.66114 5.70168,-1.87917 4.77069,-2.42485 7.19476,-5.1298 8.4648,-7.68392 1.27004,-2.55412 1.38655,-4.94951 1.58293,-6.72693 0.0982,-0.8887 0.22008,-1.62042 0.49078,-2.13309 0.27069,-0.51266 0.66783,-0.82369 1.41569,-0.92559 1.49574,-0.2038 4.44328,0.57313 9.83647,2.76585 v -0.35766 c -5.4066,-2.19817 -8.21959,-2.98167 -9.88357,-2.75495 -0.83198,0.11337 -1.36457,0.5153 -1.67781,1.10853 -0.31323,0.59324 -0.42978,1.36067 -0.529,2.25869 -0.19844,1.79604 -0.31305,4.12574 -1.54812,6.60952 -1.23506,2.48379 -3.59065,5.12926 -8.31053,7.52829 -2.3713,1.20528 -4.18086,1.76208 -5.56311,1.84094 -1.38226,0.0789 -2.3328,-0.30663 -3.04913,-1.00818 -1.43267,-1.4031 -1.90021,-4.15667 -2.47712,-6.99587 -0.57692,-2.8392 -1.27553,-5.7702 -3.33446,-7.49757 -2.05892,-1.72737 -5.43688,-2.18394 -11.23134,-0.1686 -11.4988,3.99935 -16.64714,1.72151 -20.71114,-0.56723 -2.03201,-1.14437 -3.79573,-2.30787 -5.93581,-2.67507 -2.140081,-0.3672 -4.634528,0.0777 -8.088692,2.09623 -6.927564,4.04833 -12.405918,13.0248 -17.54052,18.08045 -2.567304,2.52783 -5.017901,4.05185 -7.488017,3.572 -2.470116,-0.47986 -5.059001,-2.99065 -7.853199,-8.7119 -3.662259,-7.49865 -6.677982,-12.07384 -9.279812,-14.83747 -2.601834,-2.76361 -4.803747,-3.7153 -6.791775,-3.93172 -1.988028,-0.21641 -3.743958,0.28815 -5.472325,0.3884 -1.728366,0.10025 -3.544045,-0.24042 -5.516381,-2.01379 z"
       id="path182-5"
       sodipodi:nodetypes="ccsssssssssssssssssssccsssssssssssssssssssc" /></g></svg>
